HIERARCHY
ROOT joint_Root
{
	OFFSET 0.0 0.0 0.0
	CHANNELS 6 Xposition Yposition Zposition Zrotation Xrotation Yrotation 
	JOINT Hips
	{
		OFFSET 4.5925 91.4895 -427.239
		CHANNELS 6 Xposition Yposition Zposition Zrotation Xrotation Yrotation 
		JOINT Spine
		{
			OFFSET 15.7357 0.0 0.0
			CHANNELS 6 Xposition Yposition Zposition Zrotation Xrotation Yrotation 
			JOINT Chest
			{
				OFFSET 8.98455 -0.406207 0.0
				CHANNELS 6 Xposition Yposition Zposition Zrotation Xrotation Yrotation 
				JOINT Neck
				{
					OFFSET 16.3773 0.0 0.0
					CHANNELS 6 Xposition Yposition Zposition Zrotation Xrotation Yrotation 
					JOINT Head
					{
						OFFSET 6.45672 0.0 0.0
						CHANNELS 6 Xposition Yposition Zposition Zrotation Xrotation Yrotation 
						End Site
						{
							OFFSET 0.0 0.0 0.0
						}
					}
				}
				JOINT Shoulder_L
				{
					OFFSET 12.9942 -0.242716 4.98039
					CHANNELS 6 Xposition Yposition Zposition Zrotation Xrotation Yrotation 
					JOINT UpperArm_L
					{
						OFFSET 5.34809 0.0 0.0
						CHANNELS 6 Xposition Yposition Zposition Zrotation Xrotation Yrotation 
						JOINT LowerArm_L
						{
							OFFSET 24.3286 1.87007e-05 0.0
							CHANNELS 6 Xposition Yposition Zposition Zrotation Xrotation Yrotation 
							JOINT Hand_L
							{
								OFFSET 22.2916 0.0 0.0
								CHANNELS 6 Xposition Yposition Zposition Zrotation Xrotation Yrotation 
								End Site
								{
									OFFSET 0.0 0.0 0.0
								}
							}
						}
					}
				}
				JOINT Shoulder_R
				{
					OFFSET 12.9945 -0.242716 -4.98039
					CHANNELS 6 Xposition Yposition Zposition Zrotation Xrotation Yrotation 
					JOINT UpperArm_R
					{
						OFFSET -5.34813 0.0 0.0
						CHANNELS 6 Xposition Yposition Zposition Zrotation Xrotation Yrotation 
						JOINT LowerArm_R
						{
							OFFSET -24.3289 0.000322201 0.0
							CHANNELS 6 Xposition Yposition Zposition Zrotation Xrotation Yrotation 
							JOINT Hand_R
							{
								OFFSET -22.2915 -0.000108084 0.0
								CHANNELS 6 Xposition Yposition Zposition Zrotation Xrotation Yrotation 
								End Site
								{
									OFFSET 0.0 0.0 0.0
								}
							}
						}
					}
				}
			}
		}
		JOINT UpperLeg_L
		{
			OFFSET -2.19248 -6.46944 0.0
			CHANNELS 6 Xposition Yposition Zposition Zrotation Xrotation Yrotation 
			JOINT LowerLeg_L
			{
				OFFSET 39.0811 0.0 -1.23785e-05
				CHANNELS 6 Xposition Yposition Zposition Zrotation Xrotation Yrotation 
				JOINT Foot_L
				{
					OFFSET 40.9854 0.0 -1.26872e-05
					CHANNELS 6 Xposition Yposition Zposition Zrotation Xrotation Yrotation 
					JOINT Toes_L
					{
						OFFSET 11.7543 0.0 0.0
						CHANNELS 6 Xposition Yposition Zposition Zrotation Xrotation Yrotation 
						End Site
						{
							OFFSET 0.0 0.0 0.0
						}
					}
				}
			}
		}
		JOINT UpperLeg_R
		{
			OFFSET -2.19251 6.46944 0.0
			CHANNELS 6 Xposition Yposition Zposition Zrotation Xrotation Yrotation 
			JOINT LowerLeg_R
			{
				OFFSET -39.0811 -0.00228153 -0.0401928
				CHANNELS 6 Xposition Yposition Zposition Zrotation Xrotation Yrotation 
				JOINT Foot_R
				{
					OFFSET -40.9854 0.0 0.0
					CHANNELS 6 Xposition Yposition Zposition Zrotation Xrotation Yrotation 
					JOINT Toes_R
					{
						OFFSET -11.7543 0.0 0.0
						CHANNELS 6 Xposition Yposition Zposition Zrotation Xrotation Yrotation 
						End Site
						{
							OFFSET 0.0 0.0 0.0
						}
					}
				}
			}
		}
	}
}
MOTION
Frames:	4
Frame Time:	0.0333333
0.000000 0.000000 0.000000 0.000000 0.000000 -0.000000 -1.273210 92.793100 -3.548610 87.788000 6.882250 2.235210 15.735700 0.000005 -0.000001 90.395400 85.869300 -93.391700 8.984550 -0.406207 -0.000000 0.508731 0.246562 -5.989250 16.377300 -0.000001 -0.000001 2.438840 -4.345130 4.501330 6.456720 -0.000001 -0.000000 -3.298050 -3.874870 3.097700 12.994200 -0.242716 4.980390 -91.867900 4.622810 -67.970200 5.348090 -0.000007 -0.000001 -62.330800 12.474200 -0.487020 24.328600 0.000019 0.000005 10.893100 21.337200 -27.874400 22.291600 -0.000001 0.000005 13.134000 5.169240 3.479000 12.994500 -0.242716 -4.980390 93.851200 -10.770200 -70.190000 -5.348130 -0.000001 -0.000004 -19.088000 -59.914100 -47.167600 -24.328900 0.000322 -0.000009 -7.600040 -3.968870 -62.580200 -22.291500 -0.000108 -0.000004 21.972100 5.552400 -8.818960 -2.192480 -6.469440 -0.000000 -174.477000 -10.987800 -6.862410 39.081100 -0.000007 -0.000012 -0.029245 0.076481 20.925800 40.985400 -0.000006 -0.000013 1.147490 15.327100 -62.553400 11.754300 -0.000000 0.000003 -0.000058 -0.000648 -16.602600 -2.192510 6.469440 -0.000001 179.046000 28.733100 178.283000 -39.081100 -0.002282 -0.040193 0.006514 -0.010341 17.128800 -40.985400 0.000008 0.000006 6.400430 17.860800 -64.233600 -11.754300 -0.000006 -0.000006 -0.003639 -0.047631 -18.510500
0.000000 0.000000 0.000000 0.000000 0.000000 -0.000000 -0.964092 92.773800 -3.723610 87.860200 5.795580 2.311220 15.735700 0.000005 -0.000001 90.458100 85.778600 -93.206600 8.984550 -0.406207 -0.000000 0.688042 0.237093 -5.494280 16.377300 -0.000001 -0.000001 1.902810 -3.742300 3.836760 6.456720 -0.000001 -0.000000 -2.951790 -3.708190 3.153290 12.994200 -0.242716 4.980390 -91.976200 4.898090 -67.995500 5.348090 -0.000007 -0.000001 -63.281400 14.114300 -1.411210 24.328600 0.000019 0.000005 10.430500 21.770100 -26.397000 22.291600 -0.000001 0.000005 12.744900 5.165630 3.566830 12.994500 -0.242716 -4.980390 92.879600 -8.787440 -71.776900 -5.348130 -0.000001 -0.000004 -18.340900 -54.409600 -41.323200 -24.328900 0.000322 -0.000009 -7.907810 -2.221580 -74.404800 -22.291500 -0.000108 -0.000004 21.143300 5.539740 -8.229830 -2.192480 -6.469440 -0.000000 -174.745000 -11.501700 -6.807220 39.081100 -0.000007 -0.000012 -0.029854 0.077240 21.131900 40.985400 -0.000006 -0.000013 1.301890 14.708300 -62.669400 11.754300 -0.000000 0.000003 -0.000055 -0.000615 -16.601400 -2.192510 6.469440 -0.000001 178.746000 28.329800 178.143000 -39.081100 -0.002282 -0.040193 0.006927 -0.011594 17.251200 -40.985400 0.000008 0.000006 6.348600 18.575900 -64.309300 -11.754300 -0.000006 -0.000006 -0.003678 -0.048053 -18.527600
0.000000 0.000000 0.000000 0.000000 0.000000 -0.000000 -0.680539 92.747700 -3.862300 87.962300 4.537160 2.573080 15.735700 0.000005 -0.000001 90.469500 85.592300 -92.976100 8.984550 -0.406207 -0.000000 1.058840 0.218793 -5.010970 16.377300 -0.000001 -0.000001 1.242790 -3.235470 3.283360 6.456720 -0.000001 -0.000000 -2.734430 -3.347270 3.133320 12.994200 -0.242716 4.980390 -92.047400 5.088900 -68.049400 5.348090 -0.000007 -0.000001 -64.359900 15.658700 -2.239980 24.328600 0.000019 0.000005 10.133700 22.114100 -25.397500 22.291600 -0.000001 0.000005 12.635600 5.157490 3.763610 12.994500 -0.242716 -4.980390 91.834800 -6.332100 -73.807700 -5.348130 -0.000001 -0.000004 -17.547500 -47.571800 -35.354900 -24.328900 0.000322 -0.000009 -7.319850 -0.648743 -84.967500 -22.291500 -0.000108 -0.000004 20.573800 5.525740 -7.609110 -2.192480 -6.469440 -0.000000 -174.977000 -12.067400 -6.495360 39.081100 -0.000007 -0.000012 -0.027737 0.071046 21.325800 40.985400 -0.000006 -0.000013 1.429270 14.027800 -62.827900 11.754300 -0.000000 0.000003 -0.000048 -0.000543 -16.598700 -2.192510 6.469440 -0.000001 178.371000 27.550100 178.153000 -39.081100 -0.002282 -0.040193 0.007249 -0.012452 17.486200 -40.985400 0.000008 0.000006 6.229990 19.058900 -64.374100 -11.754300 -0.000006 -0.000006 -0.003667 -0.047927 -18.522500
0.000000 0.000000 0.000000 0.000000 0.000000 -0.000000 -0.427132 92.713200 -3.976520 88.105500 3.451450 2.758200 15.735700 0.000005 -0.000001 89.523000 85.419100 -91.794700 8.984550 -0.406207 -0.000000 1.400460 0.049861 -4.539840 16.377300 -0.000001 -0.000001 0.513083 -2.664320 2.680140 6.456720 -0.000001 -0.000000 -2.568190 -3.070450 3.348620 12.994200 -0.242716 4.980390 -92.152200 5.373520 -68.134500 5.348090 -0.000007 -0.000001 -65.159200 17.581600 -2.977400 24.328600 0.000019 0.000005 9.718730 21.690500 -24.863000 22.291600 -0.000001 0.000005 12.657800 5.154680 3.831110 12.994500 -0.242716 -4.980390 90.805500 -3.157310 -75.685400 -5.348130 -0.000001 -0.000004 -17.315000 -39.031700 -30.595500 -24.328900 0.000322 -0.000009 -5.916240 0.281511 -92.716500 -22.291500 -0.000108 -0.000004 19.987300 5.522880 -7.485100 -2.192480 -6.469440 -0.000000 -175.267000 -12.175600 -6.293810 39.081100 -0.000007 -0.000012 -0.029812 0.075583 21.525700 40.985400 -0.000006 -0.000013 1.459530 13.033200 -62.969200 11.754300 -0.000000 0.000003 -0.000054 -0.000606 -16.601100 -2.192510 6.469440 -0.000001 177.934000 26.818700 177.986000 -39.081100 -0.002282 -0.040193 -0.007012 0.032050 17.875600 -40.985400 0.000008 0.000006 5.480640 19.629700 -64.133100 -11.754300 -0.000006 -0.000006 -0.003555 -0.046730 -18.473700
